<?xml version="1.0" standalone="no"?>
<!DOCTYPE svg PUBLIC "-//W3C//DTD SVG 1.1//EN" "http://www.w3.org/Graphics/SVG/1.1/DTD/svg11.dtd" >
<svg xmlns="http://www.w3.org/2000/svg">
<metadata>
Created by FontForge 20120731 at Sat Dec 12 15:45:03 2015
 By Ads
</metadata>
<defs>
<font id="iconfont" horiz-adv-x="1024" >
  <font-face 
    font-family="iconfont"
    font-weight="500"
    font-stretch="normal"
    units-per-em="1024"
    panose-1="2 0 6 3 0 0 0 0 0 0"
    ascent="896"
    descent="-128"
    x-height="792"
    bbox="0 -209 1369.6 896"
    underline-thickness="50"
    underline-position="-100"
    unicode-range="U+0078-E613"
  />
<missing-glyph horiz-adv-x="374" 
d="M34 0v682h272v-682h-272zM68 34h204v614h-204v-614z" />
    <glyph glyph-name=".notdef" horiz-adv-x="374" 
d="M34 0v682h272v-682h-272zM68 34h204v614h-204v-614z" />
    <glyph glyph-name=".null" horiz-adv-x="0" 
 />
    <glyph glyph-name="nonmarkingreturn" horiz-adv-x="341" 
 />
    <glyph glyph-name="x" unicode="x" horiz-adv-x="1001" 
d="M281 543q-27 -1 -53 -1h-83q-18 0 -36.5 -6t-32.5 -18.5t-23 -32t-9 -45.5v-76h912v41q0 16 -0.5 30t-0.5 18q0 13 -5 29t-17 29.5t-31.5 22.5t-49.5 9h-133v-97h-438v97zM955 310v-52q0 -23 0.5 -52t0.5 -58t-10.5 -47.5t-26 -30t-33 -16t-31.5 -4.5q-14 -1 -29.5 -0.5
t-29.5 0.5h-32l-45 128h-439l-44 -128h-29h-34q-20 0 -45 1q-25 0 -41 9.5t-25.5 23t-13.5 29.5t-4 30v167h911zM163 247q-12 0 -21 -8.5t-9 -21.5t9 -21.5t21 -8.5q13 0 22 8.5t9 21.5t-9 21.5t-22 8.5zM316 123q-8 -26 -14 -48q-5 -19 -10.5 -37t-7.5 -25t-3 -15t1 -14.5
t9.5 -10.5t21.5 -4h37h67h81h80h64h36q23 0 34 12t2 38q-5 13 -9.5 30.5t-9.5 34.5q-5 19 -11 39h-368zM336 498v228q0 11 2.5 23t10 21.5t20.5 15.5t34 6h188q31 0 51.5 -14.5t20.5 -52.5v-227h-327z" />
    <glyph glyph-name="uniE600" unicode="&#xe600;" 
d="M196 413l196 -53l7 -1q22 0 27 21q2 7 0 14.5t-7 12.5t-13 7l-195 53q-8 2 -15 0t-12.5 -7.5t-7.5 -13t0 -14.5t7.5 -12.5t12.5 -6.5zM196 273l196 -53q2 0 3.5 -0.5t3.5 -0.5q22 0 27 21q2 7 0 14.5t-7 12.5t-13 7l-195 53q-12 3 -22 -3t-13 -17q-1 -6 0 -11.5t3.5 -10
t7 -8t9.5 -4.5zM196 133l196 -53h7q22 0 27 20q3 11 -3 21.5t-17 13.5l-195 52q-8 2 -15 0t-12.5 -7t-7.5 -13q-3 -11 3 -21t17 -13zM947 687.5q-11 8.5 -24 4.5l-412 -110l-412 110q-13 4 -24 -5q-6 -4 -8.5 -9.5t-2.5 -12.5v-671q0 -21 20 -27l420 -112q3 -1 7 -1l7 1
l420 112q20 6 20 27v671q0 14 -11 22.5zM483 -82l-363 98v613l363 -98v-613zM902 16l-363 -98v613l363 98v-613zM623 359q2 0 3.5 0.5t3.5 0.5l196 53q5 1 9.5 4.5t7 8t3.5 10t-1 11.5q-3 11 -13 17t-21 3l-195 -53q-12 -3 -17.5 -13t-2.5 -21q5 -21 27 -21zM623 219
q3 0 7 1l196 53q3 1 6.5 3t6 4.5t4.5 5.5t3 6v8q1 3 -1 7q-3 11 -13 17t-21 3l-195 -53q-12 -3 -17.5 -13t-2.5 -21q1 -6 5 -11t10 -7.5t12 -2.5zM623 80h7l196 53q11 3 16.5 13t2.5 21t-13 17t-21 3l-195 -52q-12 -3 -17.5 -13.5t-2.5 -21.5q5 -20 27 -20z" />
    <glyph glyph-name="uniE601" unicode="&#xe601;" 
d="M957 6q0 -32 -22.5 -54.5t-55.5 -22.5h-738q-32 0 -55 22.5t-23 54.5v208q-2 9 5 20l191 323q6 8 16 16t22 12t22 4h400q11 0 22.5 -4.5t21 -12t15.5 -16.5l175 -322q4 -7 4 -14v-214zM102 240v-20v20zM102 6q0 -16 11.5 -27t27.5 -11h738q17 0 28 11t11 27v195h-233v-78
q0 -11 -5 -19.5t-14 -14t-20 -5.5h-272q-10 0 -19 5.5t-14.5 14t-5.5 19.5v78h-233v-195zM646 142v39v20v39h-272v-39v-20v-39q0 -8 6 -13.5t14 -5.5h233q8 0 13.5 5.5t5.5 13.5zM755 517q-5 9 -14.5 17t-21.5 12.5t-22 4.5h-356q-17 0 -34.5 -10t-25.5 -23l-158 -278h578h4
h196zM258 317q0 8 5.5 14t13.5 6h466q8 0 14 -6t6 -14t-6 -13.5t-14 -5.5h-466q-8 0 -13.5 5.5t-5.5 13.5zM705 376h-389q-8 0 -14 5.5t-6 13.5t6 14t14 6h389q8 0 13.5 -6t5.5 -14q-3 -17 -19 -19zM666 453h-311q-6 0 -10.5 3t-7 7.5t-2.5 9.5q0 8 6 13.5t14 5.5h311
q8 0 13.5 -5.5t5.5 -13.5q0 -4 -1.5 -7.5t-4 -6.5t-6 -4.5t-7.5 -1.5z" />
    <glyph glyph-name="uniE602" unicode="&#xe602;" 
d="M829 -23h-88v465q0 3 -1 5t-2.5 4t-3 3.5t-4 2t-4.5 0.5h-117q-7 0 -11 -4t-4 -11v-465h-19v348q0 4 -1.5 6.5t-3.5 4.5t-4.5 3.5t-5.5 1.5h-117q-7 0 -11 -4.5t-4 -11.5v-348h-19v560q0 6 -4.5 10.5t-10.5 4.5h-117q-5 0 -8.5 -2t-5.5 -5.5t-2 -7.5v-559q-10 1 -20 5.5
t-18 11.5t-13.5 16t-9 19.5t-3.5 21.5v526q0 6 -4.5 10.5t-10.5 4.5t-10.5 -4.5t-4.5 -10.5v-526q0 -44 31 -74.5t75 -30.5h556q6 0 10.5 4t4.5 11q0 3 -1.5 5.5t-3.5 4.5t-4.5 3.5t-5.5 1.5zM624 427h87v-450h-87v450zM458 310h86v-333h-86v333zM378 522v-545h-86v545h86z
" />
    <glyph glyph-name="uniE603" unicode="&#xe603;" 
d="M809 -104h-591q-23 0 -43.5 11.5t-32 32t-11.5 43.5v655q0 36 25.5 62t61.5 26h591q36 0 62 -26t26 -62v-655q0 -14 -4.5 -27.5t-12.5 -24t-19 -18.5t-24.5 -12.5t-27.5 -4.5zM218 678q-16 0 -28 -12t-12 -28v-655q0 -16 12 -27.5t28 -11.5h591q17 0 28.5 11.5t11.5 27.5
v655q0 16 -11.5 28t-28.5 12h-591zM322 103h383v-32h-383v32zM322 422h383v-31h-383v31zM322 566h383v-32h-383v32zM322 263h383v-32h-383v32z" />
    <glyph glyph-name="uniE604" unicode="&#xe604;" 
d="M884 554q-3 -3 -10 -9l-14 -12q-7 -6 -10 -9q33 -49 51.5 -107t18.5 -120q0 -109 -54 -202t-147 -147t-202.5 -54t-202.5 54t-147 147t-54 202.5t54 202.5t147 147t202 54q158 0 274 -107l12 -12q4 5 16 17l15 15q-62 62 -144 97t-173 35q-186 0 -317 -131.5t-131 -317.5
q0 -91 35.5 -174t95.5 -143t143 -95.5t174 -35.5t174 35.5t143.5 95.5t96 143t35.5 174q0 142 -81 257zM647 559l-84 -155q-33 -63 -41 -84h-1q-11 25 -42.5 85t-83.5 154h-79l147 -253h-120v-55h141v-77h-141v-57h141v-112h70v112h137v57h-137v77h137v55h-117l148 253h-75z
" />
    <glyph glyph-name="uniE605" unicode="&#xe605;" 
d="M933 -30v-11q0 -5 -3.5 -8.5t-7.5 -3.5h-785q-15 0 -25 10t-10 24v660q0 5 3.5 8.5t8.5 3.5h11q5 0 8.5 -3.5t3.5 -8.5v-648q1 -10 11 -12h774q4 0 7.5 -3t3.5 -8zM216 16h137q2 0 4 0.5t3.5 2t2.5 4t1 4.5v455q0 2 -1 4.5t-2.5 4t-3.5 2t-4 0.5h-137q-5 0 -8 -3t-3 -8
v-455q0 -5 3 -8t8 -3zM432 16h137q5 0 8 3t3 8v546q0 5 -3 8t-8 3h-137q-2 0 -4 -0.5t-3.5 -2t-2.5 -4t-1 -4.5v-546q0 -5 3.5 -8t7.5 -3zM649 16h136q5 0 8 3t3 8v284q0 3 -1.5 6t-4 4.5t-5.5 1.5h-136q-5 0 -8.5 -3.5t-3.5 -8.5v-284q0 -5 3.5 -8t8.5 -3z" />
    <glyph glyph-name="uniE606" unicode="&#xe606;" 
d="M239 687q-20 0 -37 -10t-26.5 -26.5t-9.5 -36.5q0 -31 21.5 -52t51.5 -21t51.5 21t21.5 51.5t-21.5 52t-51.5 21.5zM353 435q0 16 -6.5 31.5t-17.5 26t-26 17t-32 6.5h-65q-46 0 -70 -40q-11 -20 -11 -41v-33h228v33zM239 687q-20 0 -37 -10t-26.5 -26.5t-9.5 -36.5
q0 -31 21.5 -52t51.5 -21t51.5 21t21.5 51.5t-21.5 52t-51.5 21.5zM353 435q0 16 -6.5 31.5t-17.5 26t-26 17t-32 6.5h-65q-46 0 -70 -40q-11 -20 -11 -41v-33h228v33zM512 209q-30 0 -51.5 -21.5t-21.5 -51.5t21.5 -51.5t51.5 -21.5q15 0 28.5 5.5t23.5 15.5t15.5 23.5
t5.5 28.5q0 30 -21.5 51.5t-51.5 21.5zM626 -43q0 22 -11 41t-29.5 29.5t-40.5 10.5h-66q-33 0 -57 -23.5t-24 -57.5v-32h228v32zM512 209q-30 0 -51.5 -21.5t-21.5 -51.5t21.5 -51.5t51.5 -21.5q15 0 28.5 5.5t23.5 15.5t15.5 23.5t5.5 28.5q0 30 -21.5 51.5t-51.5 21.5z
M626 -43q0 22 -11 41t-29.5 29.5t-40.5 10.5h-66q-33 0 -57 -23.5t-24 -57.5v-32h228v32zM796 687q-19 0 -36 -10t-27 -26.5t-10 -36.5q0 -31 21.5 -52t52 -21t52 21t21.5 51.5t-21.5 52t-52.5 21.5zM910 435q0 34 -23.5 57.5t-57.5 23.5h-65q-22 0 -41 -11t-29.5 -29.5
t-10.5 -40.5v-33h227v33zM796 687q-19 0 -36 -10t-27 -26.5t-10 -36.5q0 -31 21.5 -52t52 -21t52 21t21.5 51.5t-21.5 52t-52.5 21.5zM910 435q0 34 -23.5 57.5t-57.5 23.5h-65q-22 0 -41 -11t-29.5 -29.5t-10.5 -40.5v-33h227v33zM700 12q-12 0 -18 10q-4 5 -4.5 11t2 11.5
t8.5 9.5l1 1q8 5 17.5 3.5t14.5 -9.5q3 -5 3.5 -11t-2 -11.5t-7.5 -9.5l-2 -1l-4 -2q-2 -1 -4 -1.5t-5 -0.5zM322 13q-3 0 -6.5 1t-6.5 3l-2 2q-8 5 -9.5 14.5t4.5 17t15 9t17 -4.5h1q8 -6 9.5 -15t-3.5 -17q-3 -5 -8 -7.5t-11 -2.5zM761 65q-3 0 -5.5 0.5t-5 2t-4.5 3.5
q-7 6 -7.5 15.5t5.5 16.5l1 1q6 7 15.5 8t16.5 -5.5t8 -15.5t-5 -17h-1l-1 -1q-7 -8 -17 -8zM262 66q-10 0 -17 8l-2 2q-2 2 -3 5t-2 5.5t-0.5 5.5t1.5 6t2.5 5.5t3.5 4.5q5 4 11 5t11.5 -1t10.5 -6l1 -2q3 -3 4.5 -7.5t1 -8.5t-2.5 -8.5t-5 -7.5q-6 -6 -15 -6zM807 131
q-2 0 -3.5 0.5t-3.5 1t-3 1.5q-9 4 -11.5 13t1.5 18l1 2q5 8 14 10.5t17 -1.5t11 -13t-1 -18l-2 -2q-6 -12 -20 -12zM216 133q-14 0 -20 12l-1 2q-2 3 -2.5 6.5t0 7t2 7t4 6t5.5 4.5q6 2 12 2t11 -3.5t8 -8.5l1 -2q3 -6 3 -11.5t-3.5 -11t-8.5 -8.5q-3 -1 -5.5 -1.5
t-5.5 -0.5zM836 206q-2 0 -5 1q-9 2 -14 10t-3 18l1 1q2 9 10 14t17 3t14 -10t3 -17v-1v-1q-5 -18 -23 -18zM187 208q-2 0 -4.5 0.5t-5 1.5t-4.5 2.5t-3.5 3.5t-2.5 4.5t-2 4.5v2q-3 10 2 18t14 10t17.5 -3t10.5 -14v-2q2 -6 0 -12t-6 -10t-10 -5zM847 286h-1q-6 0 -11 3.5
t-8 8.5t-3 11v4q0 6 3 11t8 8t11.5 3t11.5 -3t8 -8t3 -11v-4q0 -9 -6.5 -16t-15.5 -7zM177 288q-9 0 -15.5 6.5t-6.5 16.5v2q0 10 6.5 16.5t15.5 6.5h1q9 0 15.5 -7t6.5 -16v-2q0 -6 -3 -11t-8 -8.5t-12 -3.5zM632 601q-4 0 -8 2h-2q-9 4 -13 12.5t-0.5 17.5t12 12.5
t17.5 0.5l2 -1q9 -3 12.5 -11.5t0.5 -17.5q-1 -4 -3.5 -6.5t-5 -4.5t-6 -3t-6.5 -1zM392 601q-3 0 -6.5 1t-6 3t-5 5t-3.5 6q-3 9 1 17.5t12 11.5l3 1q4 2 8.5 1.5t8.5 -2t7 -5t5 -7.5q2 -7 1 -12.5t-5 -10.5t-10 -7h-1q-4 -2 -9 -2zM554 621h-3h-2q-10 1 -15.5 8.5t-4.5 17
t8.5 15t16.5 4.5h2q10 -1 15.5 -8.5t4.5 -16.5t-7.5 -14.5t-14.5 -5.5zM471 621q-6 0 -11 2.5t-8 7t-4 10.5v5q0 3 1 5t2.5 4.5t3 4t3.5 3t4.5 2.5t5.5 1h2q10 1 17 -4.5t8.5 -15t-4.5 -17t-15 -8.5h-3h-1h-1z" />
    <glyph glyph-name="uniE607" unicode="&#xe607;" 
d="M944 -53q0 -39 -27.5 -66.5t-66.5 -27.5h-679q-25 0 -46.5 12.5t-34 34.5t-12.5 47v598q0 38 27.5 65.5t65.5 27.5h679q39 0 66.5 -27.5t27.5 -65.5v-598zM890 545q0 16 -11.5 27.5t-28.5 11.5h-679q-16 0 -27.5 -11.5t-11.5 -27.5v-598q0 -16 11.5 -28t27.5 -12h679
q11 0 20 5.5t14.5 14.5t5.5 20v598zM796 -52h-85q-6 0 -10 4t-4 9.5t4 9.5t10 4h85q12 0 17.5 6t5.5 26q0 4 2.5 7t6 5t6.5 2q6 0 10.5 -4t4.5 -10v-5l-1 -1v-1q-2 -26 -15 -39t-37 -13zM833.5 51q-5.5 0 -9.5 4t-4 9q0 3 1 5.5t3 4.5q3 2 6.5 3t7 0t6.5 -3q3 -4 3 -9.5
t-3 -9.5q-5 -4 -10.5 -4zM278 259h-14q-12 2 -13 14q0 6 4 9.5t9 3.5h14q5 0 9 -3.5t4 -9.5q0 -14 -13 -14zM373 259h-14q-6 0 -9.5 4t-3.5 10t3.5 9.5t9.5 3.5h14q5 0 9 -3.5t4 -9.5t-4 -10t-9 -4zM467 259h-13q-6 0 -10 4t-4 10t4 9.5t10 3.5h13q6 0 10 -3.5t4 -9.5
t-4 -10t-10 -4zM549 259h-14q-6 0 -9.5 4t-3.5 10t3.5 9.5t9.5 3.5h14q5 0 9 -3.5t4 -9.5q0 -2 -0.5 -4t-2 -4t-3 -3t-3.5 -2t-4 -1zM643 259h-13q-14 0 -14 14q0 6 4 9.5t10 3.5h13q6 0 10 -3.5t4 -9.5q0 -4 -2 -7t-5 -5t-7 -2zM738 259h-13q-6 0 -10 4t-4 10t4 9.5t10 3.5
h13q4 0 7 -1.5t5 -4.5t2 -7q-2 -12 -14 -14zM278 178h-14q-3 0 -6.5 2t-5 5t-1.5 7q0 5 4 9t9 4h14q5 0 9 -4t4 -9q0 -3 -1 -5.5t-2.5 -4.5t-4 -3t-5.5 -1zM373 178h-14q-6 0 -9.5 4t-3.5 10q0 2 0.5 4t1.5 3.5t3 3t4 2t4 0.5h14q3 0 6.5 -1.5t5 -5t1.5 -6.5q0 -6 -4 -10
t-9 -4zM467 178h-13q-4 0 -7 2t-5 5t-2 7q0 2 1 4.5t3 4.5t4.5 3t5.5 1h13q6 0 10 -4t4 -9.5t-4 -9.5t-10 -4zM549 178h-14q-6 0 -9.5 4t-3.5 10q0 3 1.5 6.5t4.5 5t7 1.5h14q12 -1 13 -13q0 -6 -4 -10t-9 -4zM643 178h-13q-3 0 -5.5 1t-4.5 3t-3 4.5t-1 5.5q0 5 4 9t10 4
h13q6 0 10 -4t4 -9.5t-4 -9.5t-10 -4zM738 178h-13q-6 0 -10 4t-4 10q0 3 2 6.5t5 5t7 1.5h13q6 0 10 -4t4 -9q0 -4 -2 -7t-5 -5t-7 -2zM278 16h-14q-3 0 -6.5 1.5t-5 5t-1.5 6.5q0 6 4 10t9 4h14q4 0 7 -2t4.5 -5t1.5 -6.5t-1.5 -7t-4.5 -5t-7 -1.5zM373 16h-14
q-6 0 -9.5 4t-3.5 9.5t3.5 9.5t9.5 4h14q2 0 4.5 -1t4.5 -3t3 -4.5t1 -5.5q0 -5 -4 -9t-9 -4zM467 16h-13q-6 0 -10 4t-4 9.5t4 9.5t10 4h13q4 0 7 -2t5 -5t2 -7q0 -2 -1 -5t-3 -4.5t-4.5 -2.5t-5.5 -1zM549 16h-14q-4 0 -7 1.5t-4.5 5t-1.5 6.5q0 6 3.5 10t9.5 4h14
q2 0 4.5 -1t4.5 -3t3 -4.5t1 -5.5q-2 -12 -13 -13zM278 97h-14q-12 2 -13 13q0 6 4 10t9 4h14q5 0 9 -4t4 -9.5t-4 -9.5t-9 -4zM373 97h-14q-6 0 -9.5 4t-3.5 9.5t3.5 9.5t9.5 4h14q5 0 9 -4t4 -9.5t-4 -9.5t-9 -4zM467 97h-13q-6 0 -10 4t-4 9.5t4 9.5t10 4h13q6 0 10 -4
t4 -10q0 -3 -2 -6t-5 -5t-7 -2zM549 97h-14q-6 0 -9.5 4t-3.5 9.5t3.5 9.5t9.5 4h14q5 0 9 -4t4 -9.5t-4 -9.5t-9 -4zM643 97h-13q-4 0 -7 2t-5 5t-2 6t1 5t2 3.5t2.5 3t4 2t4.5 0.5h13q3 0 5.5 -1t4.5 -3t3 -4.5t1 -5.5q0 -5 -4 -9t-10 -4zM738 97h-13q-6 0 -10 4t-4 9.5
t4 9.5t10 4h13q4 0 7 -2t5 -5t2 -7q0 -2 -1 -4t-2 -3.5t-3 -3t-4 -2t-4 -0.5zM267 490q-5 0 -10 2t-9 5.5t-6 8.5t-2 11v203q0 11 8 19t19 8t19 -8t8 -19v-203q0 -12 -8 -19.5t-19 -7.5zM741 490q-11 0 -19 7.5t-8 19.5v203q0 11 8 19t19 8t19 -8t8 -19v-203q0 -5 -1.5 -9
t-4 -7.5t-5.5 -6t-7.5 -3.5t-8.5 -1zM914 381h-812q-6 0 -10 4t-4 10q0 3 2 6.5t5 5t7 1.5h812q6 0 10 -4t4 -9.5t-4 -9.5t-10 -4z" />
    <glyph glyph-name="uniE608" unicode="&#xe608;" 
d="M959 124q-3 1 -14 9.5t-19 7.5q-25 -4 -31.5 7t-5.5 36q1 22 0.5 94.5t0.5 94.5q0 13 -3 21.5t-9 14t-14.5 8t-21.5 2.5h-133q-104 0 -133 -1q-20 -1 -27 6.5t-4 26.5v1v2q0 10 -1 26t-2 27t1 23t7 20q7 9 21.5 10.5t37 -1.5t31.5 -2q21 0 32 10t11 30v98v98
q0 7 -2.5 13.5t-8.5 15t-8 10.5h-308q-20 -22 -20 -57q1 -24 1 -56v-56v-56q0 -29 10 -39t40 -11h3h4q9 -1 29 1t32.5 1t14.5 -8q3 -11 4.5 -23t2 -26t0 -23.5t-1.5 -27t-1 -24.5t-4 -9t-13 0l-9 1h-263q-23 0 -34 -4.5t-15.5 -15t-4.5 -33.5q-1 -149 0 -200q0 -14 -4.5 -20
t-18.5 -4q-5 0 -6 1t-5.5 -0.5t-5.5 -1.5t-5.5 -2t-5 -2.5t-4.5 -3t-5 -3t-5 -3t-5 -3.5v-168l7 -7l8 -7l6 -7h204q18 23 17 54v53v52q-1 36 -20 44q-10 3 -29 4t-26.5 2t-15.5 2.5t-9 9.5t-2 15.5t-1 26.5v129q-1 13 4 17.5t17 4.5q114 -1 235 0q11 0 15.5 -4.5t3.5 -15.5
q-1 -85 0 -165q1 -12 -3 -17t-17 -5q-25 -2 -35.5 -2.5t-23 -5t-15.5 -7.5t-6.5 -16t-3.5 -23v-37v-59q-2 -34 20 -57h238q22 22 20 57q-1 9 -0.5 48.5t0.5 49.5q-1 21 -5.5 31.5t-15 15.5t-31.5 5q-39 1 -45.5 8t-6.5 46q0 115 -1 130q0 13 5 18t19 5q101 -1 231 0
q12 0 17 -4.5t4 -16.5q-1 -86 0 -165q1 -13 -4.5 -17t-17.5 -4q-61 -3 -71 -14t-10 -72q0 -7 0.5 -20t0.5 -23.5t-1 -19.5q-2 -35 17 -58h204l21 21v168z" />
    <glyph glyph-name="uniE609" unicode="&#xe609;" 
d="M987 713h-256v73q0 31 -21 52t-52 21h-292q-31 0 -52 -21t-21 -52v-73h-256q-16 0 -26.5 -10.5t-10.5 -25.5v-659q0 -15 10.5 -25.5t26.5 -10.5h950q16 0 26.5 10.5t10.5 25.5v659q0 15 -10.5 25.5t-26.5 10.5zM366 786h292v-73h-292v73zM805 640h146v-118
q-57 -23 -124 -40t-138 -26.5t-140 -11.5v13q0 15 -11 26t-26 11t-26 -11t-11 -26v-13q-221 8 -402 81v115h732zM951 55h-146h-586h-146v146v284q184 -70 402 -78v-23q0 -10 5 -18.5t13.5 -13.5t18.5 -5q4 0 8 1t8 3t7 4.5t5.5 5.5t4.5 7t3 8t1 8v23q218 6 402 75v-281v-146
z" />
    <glyph glyph-name="uniE60A" unicode="&#xe60a;" 
d="M1010 302l-131 132q-14 14 -35 14h-214q-15 0 -27.5 -7t-19.5 -19.5t-7 -27.5v-402q0 -22 16 -38t38 -16h340q22 0 38 16t16 38v276q0 20 -14 34zM960 2h-320v382h198l122 -122v-260zM692 256h92q13 0 22.5 9.5t9.5 22.5q0 9 -4.5 16t-12 11.5t-15.5 4.5h-92
q-14 0 -23 -9.5t-9 -22.5t9 -22.5t23 -9.5zM660 192q0 -13 9 -22.5t23 -9.5h207q13 0 22.5 9.5t9.5 22.5q0 9 -4.5 16t-12 11.5t-15.5 4.5h-207q-14 0 -23 -9.5t-9 -22.5zM899 128h-207q-14 0 -23 -9.5t-9 -22.5t9 -22.5t23 -9.5h207q13 0 22.5 9.5t9.5 22.5t-9.5 22.5
t-22.5 9.5zM546 -64h-482v162q0 118 81.5 201t198.5 86q8 1 15 0q56 -1 107 -23q12 -5 24.5 -0.5t18 17t0.5 24.5t-17 18q-3 1 -5.5 2t-4.5 1.5t-5 2.5q58 33 92 91t34 127q0 104 -73.5 177.5t-177.5 73.5t-177.5 -73.5t-73.5 -177.5q0 -69 34 -127t92 -91q-14 -6 -28 -12.5
t-27 -14.5t-25.5 -16.5t-24 -18.5t-22.5 -22q-100 -102 -100 -245v-170q0 -23 16.5 -39.5t39.5 -16.5h490q13 0 22.5 9.5t9.5 22.5t-9 22.5t-23 9.5zM165 644.5q0 77.5 54.5 132.5t132.5 55q25 0 48.5 -6.5t45 -18.5t38.5 -30q55 -55 55 -132.5t-54.5 -132.5t-132.5 -55
t-132.5 55t-54.5 132.5z" />
    <glyph glyph-name="uniE60B" unicode="&#xe60b;" 
d="M598 758q130 -28 214 -133t84 -241t-84 -241t-214 -133v88q94 28 153 106t59 180t-59 180t-153 106v88zM704 384q0 -120 -106 -172v344q106 -52 106 -172zM128 512h170l214 214v-684l-214 214h-170v256z" />
    <glyph glyph-name="uniE60C" unicode="&#xe60c;" 
d="M673 301q72 43 115 116t43 159.5t-42.5 160.5t-116 116.5t-160.5 42.5t-160.5 -42.5t-116 -116.5t-42.5 -160.5t43 -159.5t115 -116q-126 -41 -206 -149t-80 -244v-36h894v36q0 136 -80 244t-206 149z" />
    <glyph glyph-name="uniE60D" unicode="&#xe60d;" 
d="M511 -62q-64 0 -125.5 30t-109.5 80.5t-85 114t-57 134.5t-20 138q0 65 20 125.5t57 109.5t85.5 86t109.5 57t125.5 20t125 -20t109.5 -57t86 -86t57 -109.5t20 -125.5q0 -67 -20 -138t-57 -134.5t-85 -114t-110 -80.5t-126 -30zM511 756q-87 0 -160.5 -43t-116.5 -117
t-43 -161q0 -68 26.5 -143t69.5 -136t103 -101t121 -40q50 0 99 26t88 69t70 97t47.5 113.5t16.5 114.5q0 29 -5 57.5t-15 54.5t-24 50t-31.5 45t-38.5 38.5t-45 31.5t-50 24t-54 15t-58 5zM339.5 372q-44.5 0 -73.5 17.5t-29 45.5q0 18 13 32.5t36.5 22.5t52.5 8
q45 0 74 -18t29 -45.5t-29 -45t-73.5 -17.5zM290 435q2 -1 4.5 -2.5t5.5 -3t8 -2.5l8 -2q5 -1 11 -1.5t12 -0.5q34 0 50 12q-16 12 -50 12q-33 0 -49 -12zM684 372q-22 0 -41.5 4.5t-33 13t-21 20t-7.5 25.5q0 27 29 45t74 18q22 0 41 -4.5t32.5 -13t21 -20.5t7.5 -25
q0 -28 -29 -45.5t-73 -17.5zM634 435q6 -5 19 -8.5t31 -3.5q33 0 49 12q-16 12 -49.5 12t-49.5 -12zM511 73q-25 0 -45.5 9t-32.5 24.5t-12 34.5q0 29 26 49t64 20q26 0 46.5 -9t32.5 -25t12 -35q0 -29 -26 -48.5t-65 -19.5zM511.5 158q-11.5 0 -21 -3t-14 -7t-4.5 -7
q0 -2 2.5 -4.5t7.5 -5.5t12.5 -5t16.5 -2q12 0 21.5 3.5t14 7t4.5 6.5t-4.5 7t-14 7t-21 3zM535 242h-47q-11 0 -18.5 7.5t-7.5 18t7.5 18t18.5 7.5h47q11 0 18.5 -7.5t7.5 -18t-7.5 -18t-18.5 -7.5z" />
    <glyph glyph-name="uniE60E" unicode="&#xe60e;" 
d="M412 530q12 -16 28 -27t34 -17.5t38 -6.5q57 0 99 51q27 34 36 82q15 90 4 188q-25 -4 -52 2.5t-50.5 15t-49 14.5t-57 -1t-66.5 -31q-13 -80 0 -191q4 -22 13.5 -42t22.5 -37v0zM384 337h32h32h28h19h7l-58 123l-20 15l-98 -26l-4 -2l-3 -2q-13 -13 -22.5 -30t-14.5 -39
l-44 -173q-7 -31 -6.5 -54t17 -36.5t50.5 -13.5h29q-1 119 -1 181q0 15 6 27.5t19 21t32 8.5zM339 33h356l25 36h-403zM785 204l-44 173h-1q-10 41 -31 68l-3 2l-5 2l-102 26l-20 -15l-52 -123h125q10 0 19 -2.5t16 -7.5t12 -11.5t7.5 -15.5t2.5 -18v-183h17q88 0 59 105v0z
M785 204z" />
    <glyph glyph-name="uniE60F" unicode="&#xe60f;" 
d="M384 896h256v-960h-256v960zM704 640h256v-704h-256v704zM64 448h256v-512h-256v512z" />
    <glyph glyph-name="uniE610" unicode="&#xe610;" 
d="M776 -67h-525q-51 0 -94 25t-68 68t-25 94v525q0 78 54.5 132.5t132.5 54.5h525q77 0 132 -54.5t55 -132.5v-525q0 -38 -15 -72.5t-40 -59.5t-59.5 -40t-72.5 -15zM251 743q-27 0 -49 -13.5t-35 -35.5t-13 -49v-525q0 -40 28.5 -68.5t68.5 -28.5h525q26 0 48.5 13
t35.5 35.5t13 48.5v525q0 20 -7.5 38t-20.5 31t-31 21t-38 8h-525zM502 420q-19 0 -32 13l-106 106q-13 13 -13 31.5t13 32t31.5 13.5t31.5 -14l107 -106q13 -13 13 -31.5t-13 -31.5q-7 -7 -15 -10t-17 -3zM525 420q-19 0 -32 13q-8 8 -11.5 19.5t0 23.5t11.5 20l106 106
q5 5 10 8t10.5 4.5t11.5 1.5t11.5 -1.5t11 -4.5t9.5 -8q6 -6 9.5 -14.5t3.5 -17t-3.5 -17t-9.5 -14.5l-106 -106q-13 -13 -32 -13zM652 369h-277q-12 0 -22.5 6t-16.5 16.5t-6 22.5t6 22.5t16.5 16.5t22.5 6h277q12 0 22.5 -6t16.5 -16.5t6 -22.5q0 -18 -13.5 -31.5
t-31.5 -13.5zM652 240h-277q-19 0 -32 13t-13 32q0 12 6 22.5t16.5 16.5t22.5 6h277q12 0 22.5 -6t16.5 -16.5t6 -22.5q0 -19 -13.5 -32t-31.5 -13zM513.5 132q-18.5 0 -31.5 13.5t-13 31.5v234q0 9 3.5 17t9.5 14t14 9.5t17 3.5q8 0 14.5 -2t12.5 -6t10 -9.5t6 -12.5t2 -14
v-234q0 -18 -13 -31.5t-31.5 -13.5z" />
    <glyph glyph-name="uniE611" unicode="&#xe611;" horiz-adv-x="1376" 
d="M1367 362q0 -35 -24.5 -59.5t-59.5 -24.5q-33 0 -57 22l-4 4q-83 147 -226.5 240.5t-310.5 93.5q-158 0 -297 -89.5t-225 -227.5q-4 -10 -11 -19q-1 -1 -3 -4.5t-3 -4.5l2 3q-12 -12 -29 -20t-34 -8q-35 0 -60 25t-25 60q0 49 18 67l1 1l-1 -1q202 392 667 392
q162 0 285 -47t216 -138t180 -240q3 -7 3.5 -13t-1.5 -9zM679 454q128 0 237 -65t177 -173q3 -4 8.5 -11t8.5 -11t7 -10t6 -11t3.5 -11.5t1.5 -13.5q0 -17 -7 -32.5t-18 -27t-27 -18t-33 -6.5q-24 0 -45 13l-7 5l-5 6l-2 2q-1 0 -2.5 2t-2.5 4q-3 3 -19 31
q-44 75 -118.5 119.5t-162.5 44.5q-89 0 -164 -44t-118 -118q-3 -4 -5 -7.5t-3.5 -7t-3.5 -7.5l-4 -8q-2 -4 -4.5 -9.5t-4.5 -10.5q-2 -1 -2 -1.5t-2 -2.5l-6 -5l-6 -4l-6 -4l-8 -2q-3 -2 -6.5 -3t-7 -1.5t-7.5 -1t-8 -0.5q-35 0 -60 25t-25 60q0 36 26 64q73 116 183 183.5
t242 67.5zM674 117q68 0 115.5 -47.5t47.5 -115.5q0 -44 -22 -81.5t-59.5 -59.5t-81.5 -22q-67 0 -114.5 48t-47.5 115q0 14 2 27t6 25t10 23t13 21t16 19t19 16.5t21.5 13.5t23.5 10t25 6t26 2z" />
    <glyph glyph-name="uniE612" unicode="&#xe612;" 
d="M992 464l-40 40l-40 40q-3 3 -6.5 4t-7 1t-7 -1t-6.5 -4l-330 -330q-3 -3 -4 -7l-37 -121q-2 -8 4 -14l1 -1v-1q3 -3 7 -4t8 0l121 37q1 0 2.5 1t2.5 2l2 2l330 329q3 4 4.5 9t0 9.5t-4.5 8.5zM643 129l-95 -29l29 96l255 255l66 -67zM958 444l-46 -47l-67 67l47 47
q6 6 13 0l27 -27l26 -27q7 -6 0 -13zM366 360l66 -65q17 -18 43 -19h1h1h1q25 1 43 19l65 65l38 -38l23 23l-38 38l258 258q8 -11 8 -24v-26h48v26q0 24 -11.5 44t-31 31.5t-43.5 11.5h-359h-3h-360q-23 0 -43 -11.5t-31.5 -31.5t-11.5 -44v-463q0 -37 25 -62.5t61 -25.5
h363v48h-358zM115 657h722l-339 -339q-8 -9 -22 -9q-4 0 -8 1t-7.5 3t-6.5 5zM87 127q-10 11 -10 27v463q0 13 8 24l259 -258z" />
    <glyph glyph-name="uniE613" unicode="&#xe613;" 
d="M936 592l-12 10q-22 18 -54 18h-718q-31 0 -53 -16l-10 -8q-8 -8 -13.5 -17.5t-8.5 -21t-3 -22.5v-463q0 -37 26 -63.5t62 -26.5h423v48h-421l256 264l69 -63q5 -4 10 -7t10.5 -4.5t11.5 -1.5q9 0 17 3.5t15 8.5l68 60l23 24l267 246q4 -5 6.5 -11.5t2.5 -13.5v-170h48
v170q0 33 -22 57zM122 45q-10 12 -10 27v463q0 8 3 15.5t9 12.5l262 -246zM522 254q-3 -2 -5.5 -3t-5.5 -1q-6 0 -10 4l-340 318h705zM942 221h-32v19q0 38 -27.5 65.5t-65.5 27.5h-5q-26 0 -47.5 -12.5t-34 -34t-12.5 -46.5v-19h-32q-6 0 -11 -4.5t-5 -11.5v-207
q0 -7 5 -11.5t11 -4.5h256q4 0 8 2t6 6t2 8v207q0 7 -5 11.5t-11 4.5zM750 240q0 12 5 23.5t13.5 19.5t19.5 13t24 5h5q16 0 30.5 -8t22.5 -22.5t8 -30.5v-19h-128v19zM926 14h-224v175h48h128h16h32v-175z" />
  </font>
</defs>
</svg>
