<?xml version="1.0" encoding="utf-8"?>
<!DOCTYPE svg PUBLIC "-//W3C//DTD SVG 1.1//EN" "http://www.w3.org/Graphics/SVG/1.1/DTD/svg11.dtd">
<svg style="width:308px;height:308px;" version="1.1" id="图形" xmlns="http://www.w3.org/2000/svg" xmlns:xlink="http://www.w3.org/1999/xlink" x="0px" y="0px" width="1024px" height="1024px" viewBox="0 0 1024 1024" enable-background="new 0 0 1024 1024" xml:space="preserve">
  <path class="svgpath" data-index="path_0" fill="#ffffff" d="M762.9 706.599c-48.091 0-87.203 39.134-87.203 87.205s39.111 87.184 87.203 87.184c48.074 0 87.19-39.111 87.19-87.184-0.002-48.071-39.118-87.205-87.19-87.205zM762.9 849.498c-30.73 0-55.707-24.979-55.707-55.693 0-30.719 24.977-55.713 55.707-55.713 30.718 0 55.713 24.994 55.713 55.713-0.002 30.715-24.995 55.693-55.713 55.693z" />
<path class="svgpath" data-index="path_1" fill="#ffffff" d="M992.176 267.552c-5.687-9.411-17.396-20.67-40.871-20.67h-464.83c0 13.425 0.017 22.625 0.017 35.485l464.812 0.007c8.364 0 9.9 2.55 10.463 3.513 7.638 12.617-5.090 55.024-22.101 87.423l-108.851 241.45c-3.188 11.895-13.973 20.202-27.365 20.202-0.075 0-368.729-0.002-383.853-0.002-31.47 0-34.659 3.179-57.885-37.26-20.41-33.002-170.706-369.298-170.706-369.298h-110.879c-14.806 0-26.826-12.073-26.826-26.862 0-14.786 12.019-26.805 26.826-26.805 0 0 120.371 0.145 129.414 0.145s16.752 5.14 20.343 10.915c1.411 1.934 2.495 3.836 3.637 6.641l41.63 89.938h132.753c0-12.364-0.034-20.565-0.034-35.492h-110.042l-31.712-68.49c-9.931-20.652-13.965-39.169-57.808-39.169h-128.182c-34.373 0-62.336 27.947-62.336 62.317 0 34.391 27.963 62.373 62.336 62.373h88.218l163.948 362.177c6.233 10.809 22.287 41.997 42.822 42.011l427.733-0.015c0 0 42.441 0 61.648-41.999l106.953-236.944c7.316-13.915 42.756-85.1 20.73-121.589z" />
<path class="svgpath" data-index="path_2" fill="#ffffff" d="M460.583 706.599c-48.057 0-87.19 39.134-87.19 87.205s39.134 87.184 87.19 87.184c48.092 0 87.203-39.111 87.203-87.184s-39.111-87.205-87.203-87.205zM460.583 849.498c-30.697 0-55.677-24.979-55.677-55.693 0-30.719 24.979-55.713 55.677-55.713 30.733 0 55.73 24.994 55.73 55.713 0 30.715-24.996 55.693-55.73 55.693z" />

</svg>
